<?xml version="1.0" encoding="utf-8"?>
<!-- Generator: Adobe Illustrator 25.4.1, SVG Export Plug-In . SVG Version: 6.00 Build 0)  -->
<svg version="1.1" id="Layer_1" xmlns="http://www.w3.org/2000/svg" xmlns:xlink="http://www.w3.org/1999/xlink" x="0px" y="0px"
	 viewBox="0 0 177.5 90" style="enable-background:new 0 0 177.5 90;" xml:space="preserve">
<style type="text/css">
	.st0{fill:#FFFFFF;}
</style>
<g>
	<rect y="0" class="st0" width="90" height="90"/>
	<g id="Wm1sjU_00000127728214865320283940000007945694075859212978_">
		<g>
			<path d="M50,18.6c2.4,1.8,4.7,3.6,7,5.3c6.5,4.9,13.1,9.9,19.6,14.8c0.3,0.2,0.4,0.4,0.4,0.7c0,1,0,1.9,0,3
				c-8.1-6-16.2-12-24.3-18c0,5.8,0,11.5,0,17.2c-0.9,0-1.8,0-2.7,0C50,34,50,26.4,50,18.6z"/>
			<path d="M48.1,41.7c-0.9,0-1.7,0-2.7,0c0-5.7,0-11.4,0-17.3c-8.2,6-16.2,12-24.3,18c0-1.2,0-2.2,0-3.3c0-0.1,0.2-0.3,0.3-0.4
				c8-6.1,16.1-12.2,24.1-18.2c0.8-0.6,1.6-1.2,2.5-1.9C48.1,26.3,48.1,34,48.1,41.7z"/>
			<path d="M52.7,51.9c6.8,0,13.5,0,20.3,0c0,1,0,2,0,3.1c-7.6,0-15.3,0-22.9,0c0-3.5,0-7.1,0-10.6c7.6,0,15.3,0,22.9,0
				c0,0.7,0,1.3,0,2c-6.8,0-13.5,0-20.3,0C52.7,48.2,52.7,50,52.7,51.9z"/>
			<path d="M25.2,55c0-1,0-2,0-3c6.7,0,13.5,0,20.3,0c0-1.9,0-3.7,0-5.5c-6.7,0-13.5,0-20.2,0c0-0.7,0-1.4,0-2.1
				c7.6,0,15.2,0,22.9,0c0,3.5,0,7.1,0,10.6C40.5,55,32.9,55,25.2,55z"/>
			<path d="M27.6,69.4c0-1.3,0-2.5,0-3.8c0-0.2,0-0.3,0-0.5c0.4-0.2,0.5,0,0.6,0.3c0.6,2,2.8,3.6,4.8,3.6c0.6,0,1.2-0.2,1.7-0.5
				c0.9-0.5,0.8-1.7-0.2-2.1c-1.3-0.5-2.7-0.9-4-1.3c-0.6-0.2-1.2-0.4-1.8-0.6c-0.8-0.4-1.4-1-1.4-2c0-1,0.5-1.7,1.4-2.2
				c1.4-0.8,2.9-0.7,4.4-0.2c0.5,0.2,1,0.4,1.5,0.6c0.4,0.2,0.7,0.2,0.9-0.2c0.1-0.1,0.3-0.2,0.5-0.3c0.1,0.2,0.1,0.3,0.1,0.5
				c0,0.8,0,1.6,0,2.4c0,0.1-0.1,0.3-0.2,0.4c-0.1-0.1-0.3-0.1-0.4-0.2c-0.1-0.1-0.1-0.3-0.2-0.5c-0.9-2-3.3-3.1-5.3-2.3
				c-0.7,0.3-1,0.7-0.9,1.3c0,0.6,0.3,0.9,1,1.1c1.3,0.4,2.7,0.8,4.1,1.2c0.4,0.1,0.9,0.3,1.3,0.4c0.9,0.4,1.4,1.1,1.5,2.1
				c0.1,1-0.4,1.8-1.2,2.3c-1.4,0.9-2.8,0.9-4.4,0.5c-0.5-0.2-1.1-0.4-1.6-0.6c-0.8-0.3-1.1-0.2-1.6,0.5c-0.1,0.2-0.3,0.3-0.5,0.5
				C27.7,69.5,27.6,69.5,27.6,69.4z"/>
			<path d="M38.5,67.2c0-0.6,0-1.2,0-1.8c0-0.1,0.1-0.2,0.2-0.3c0.1,0.1,0.3,0.1,0.4,0.2c0,0,0,0.1,0,0.1c0.6,2.3,2.4,3.2,4.5,3.6
				c0.6,0.1,1.3-0.1,1.9-0.3c0.5-0.2,0.8-0.6,0.8-1.2c0-0.6-0.3-0.9-0.8-1.1c-1.4-0.5-2.8-0.9-4.3-1.4c-0.4-0.1-0.8-0.2-1.1-0.4
				c-0.9-0.4-1.7-1-1.7-2.1c0-1.1,0.6-1.9,1.6-2.4c1.2-0.6,2.6-0.6,3.9-0.2c0.6,0.2,1.2,0.5,1.8,0.7c0.4,0.2,0.7,0.2,0.9-0.2
				c0.1-0.1,0.3-0.2,0.5-0.3c0.1,0.2,0.2,0.3,0.2,0.5c0,0.8,0,1.6,0,2.4c0,0.1-0.1,0.3-0.2,0.4c-0.2-0.1-0.4-0.2-0.5-0.3
				c-0.1-0.1-0.1-0.3-0.2-0.4c-0.9-2-3.3-3.1-5.3-2.3c-0.7,0.3-1,0.6-1,1.3c0,0.6,0.3,0.9,1,1.1c1.3,0.4,2.7,0.8,4.1,1.2
				c0.4,0.1,0.9,0.3,1.3,0.4c0.9,0.4,1.4,1.1,1.5,2c0.1,1-0.4,1.8-1.2,2.3c-1.2,0.8-2.6,0.9-3.9,0.6c-0.7-0.2-1.3-0.5-2-0.7
				c-0.8-0.3-1.1-0.2-1.6,0.5c-0.1,0.1-0.3,0.2-0.4,0.3c-0.1-0.2-0.2-0.3-0.2-0.5C38.5,68.4,38.5,67.8,38.5,67.2z"/>
			<path d="M71.1,59.9c0.1,1.4,0.1,2.7,0.2,4.1c0,0.1-0.1,0.3-0.2,0.3c-0.1,0-0.3-0.1-0.4-0.2c-0.1-0.1-0.1-0.3-0.2-0.5
				c-0.6-1.7-1.7-3.1-3.5-3.5c-1.3-0.3-2.3,0.2-2.7,1.5c-0.5,1.7-0.6,3.4-0.2,5.2c0.4,1.9,1.9,2.7,3.8,2.1c1.3-0.4,2.1-1.2,2.6-2.4
				c0-0.1,0-0.2,0.1-0.2c0.2-0.1,0.3-0.3,0.5-0.4c0,0.2,0.1,0.4,0,0.6c-0.7,2.1-2.5,3.2-5,3c-2.2-0.1-4.4-1.7-4.9-3.8
				c-0.7-2.7,1.4-5.7,4.2-6c1.3-0.1,2.5,0,3.5,0.8c0.4,0.3,0.7,0.2,1.1-0.2C70.3,60.1,70.5,59.7,71.1,59.9z"/>
			<path d="M59.2,59.9c0.1,1.4,0.1,2.8,0.2,4.1c0,0.1-0.1,0.3-0.2,0.3c-0.1,0-0.3,0-0.4-0.1c-0.1-0.2-0.2-0.5-0.3-0.7
				C58,62,57,60.7,55.4,60.2c-1.5-0.5-2.6,0-3,1.5c-0.5,1.7-0.6,3.5-0.1,5.2c0.4,1.7,1.9,2.5,3.7,2c1.3-0.4,2.2-1.3,2.8-2.6
				c0.2-0.5,0.2-0.5,0.7-0.4c-0.3,1.2-1,2.2-2,2.8c-2.9,1.8-7.1,0.1-8-3.2c-0.7-2.6,1.6-5.7,4.3-5.8c1.3-0.1,2.5,0,3.6,0.9
				c0.5,0.4,0.7,0,1-0.3C58.5,60,58.7,59.7,59.2,59.9z"/>
		</g>
	</g>
</g>
<g>
	<path class="st0" d="M113.3,26.8c0.3,0.2,0.5,0.4,0.6,0.7c0.1,0.3,0.2,0.6,0.2,0.9c0,0.4-0.1,0.8-0.3,1.1c-0.2,0.3-0.5,0.6-0.9,0.8
		s-0.9,0.3-1.5,0.3h-3.1v-8.4h3c0.6,0,1.1,0.1,1.5,0.3c0.4,0.2,0.7,0.4,0.9,0.8c0.2,0.3,0.3,0.7,0.3,1.1c0,0.5-0.1,0.9-0.4,1.2
		s-0.6,0.6-1.1,0.7C112.8,26.5,113.1,26.6,113.3,26.8z M109.4,26h1.8c0.5,0,0.9-0.1,1.2-0.4c0.3-0.2,0.4-0.6,0.4-1
		c0-0.4-0.1-0.8-0.4-1c-0.3-0.2-0.7-0.4-1.2-0.4h-1.8V26z M112.6,29.5c0.3-0.3,0.5-0.6,0.5-1.1c0-0.5-0.2-0.8-0.5-1.1
		c-0.3-0.3-0.7-0.4-1.3-0.4h-1.9v3h1.9C111.9,29.9,112.3,29.7,112.6,29.5z"/>
	<path class="st0" d="M116.7,22.4v5.3c0,0.7,0.2,1.3,0.5,1.7c0.4,0.4,0.9,0.5,1.5,0.5c0.6,0,1.1-0.2,1.5-0.5
		c0.4-0.4,0.5-0.9,0.5-1.7v-5.3h1.1v5.3c0,0.7-0.1,1.3-0.4,1.8c-0.3,0.5-0.7,0.8-1.1,1.1c-0.5,0.2-1,0.3-1.6,0.3
		c-0.6,0-1.1-0.1-1.6-0.3c-0.5-0.2-0.9-0.6-1.1-1.1c-0.3-0.5-0.4-1.1-0.4-1.8v-5.3H116.7z"/>
	<path class="st0" d="M124.8,22.4v8.4h-1.1v-8.4H124.8z"/>
	<path class="st0" d="M127.8,29.9h2.9v0.9h-4v-8.4h1.1V29.9z"/>
	<path class="st0" d="M136.9,22.9c0.7,0.3,1.2,0.8,1.5,1.5c0.4,0.6,0.5,1.4,0.5,2.2c0,0.9-0.2,1.6-0.5,2.2c-0.4,0.6-0.9,1.1-1.5,1.4
		s-1.5,0.5-2.4,0.5h-2.6v-8.4h2.6C135.4,22.4,136.2,22.6,136.9,22.9z M137,29c0.6-0.6,0.9-1.4,0.9-2.4c0-1-0.3-1.9-0.9-2.4
		c-0.6-0.6-1.4-0.9-2.5-0.9H133v6.6h1.5C135.6,29.9,136.4,29.6,137,29z"/>
</g>
<g>
	<path class="st0" d="M114,35.9v0.9h-2.3v7.5h-1.1v-7.5h-2.3v-0.9H114z"/>
	<path class="st0" d="M119.8,44.2l-2-3.4h-1.3v3.4h-1.1v-8.4h2.7c0.6,0,1.2,0.1,1.6,0.3s0.8,0.5,1,0.9c0.2,0.4,0.3,0.8,0.3,1.3
		c0,0.6-0.2,1.1-0.5,1.5s-0.8,0.7-1.5,0.9l2.1,3.5H119.8z M116.5,39.9h1.6c0.6,0,1-0.1,1.3-0.4c0.3-0.3,0.4-0.7,0.4-1.2
		c0-0.5-0.1-0.9-0.4-1.2c-0.3-0.3-0.7-0.4-1.3-0.4h-1.6V39.9z"/>
	<path class="st0" d="M127.6,42.4H124l-0.7,1.9h-1.2l3-8.3h1.3l3,8.3h-1.2L127.6,42.4z M127.3,41.5l-1.5-4.2l-1.5,4.2H127.3z"/>
	<path class="st0" d="M137.3,44.2h-1.1l-4.4-6.7v6.7h-1.1v-8.4h1.1l4.4,6.6v-6.6h1.1V44.2z"/>
	<path class="st0" d="M140.4,44c-0.4-0.2-0.8-0.5-1-0.8c-0.2-0.3-0.4-0.8-0.4-1.2h1.2c0,0.4,0.2,0.7,0.5,1c0.3,0.3,0.7,0.4,1.2,0.4
		c0.5,0,0.9-0.1,1.2-0.4c0.3-0.3,0.4-0.6,0.4-1c0-0.3-0.1-0.6-0.3-0.8c-0.2-0.2-0.4-0.4-0.7-0.5c-0.3-0.1-0.6-0.2-1.1-0.3
		c-0.6-0.1-1-0.3-1.3-0.4c-0.3-0.1-0.6-0.4-0.9-0.7c-0.2-0.3-0.4-0.7-0.4-1.2c0-0.5,0.1-0.9,0.3-1.2c0.2-0.4,0.6-0.6,1-0.8
		c0.4-0.2,0.9-0.3,1.4-0.3c0.8,0,1.4,0.2,1.9,0.6c0.5,0.4,0.8,0.9,0.8,1.6h-1.2c0-0.3-0.2-0.6-0.5-0.8s-0.7-0.4-1.2-0.4
		c-0.5,0-0.8,0.1-1.1,0.4c-0.3,0.2-0.4,0.6-0.4,1c0,0.3,0.1,0.6,0.3,0.7c0.2,0.2,0.4,0.3,0.6,0.4c0.3,0.1,0.6,0.2,1.1,0.3
		c0.6,0.2,1,0.3,1.3,0.5c0.3,0.1,0.6,0.4,0.9,0.7c0.2,0.3,0.4,0.7,0.4,1.3c0,0.4-0.1,0.8-0.3,1.2c-0.2,0.4-0.5,0.7-1,0.9
		c-0.4,0.2-0.9,0.3-1.5,0.3C141.3,44.3,140.8,44.2,140.4,44z"/>
	<path class="st0" d="M151,35.9v0.9h-3.6v2.8h3v0.9h-3v3.8h-1.1v-8.4H151z"/>
	<path class="st0" d="M154,43.8c-0.6-0.4-1.1-0.9-1.5-1.5c-0.4-0.7-0.6-1.4-0.6-2.2c0-0.8,0.2-1.5,0.6-2.2c0.4-0.7,0.9-1.2,1.5-1.5
		s1.3-0.5,2.1-0.5c0.8,0,1.5,0.2,2.1,0.5c0.6,0.4,1.1,0.9,1.5,1.5c0.4,0.6,0.6,1.4,0.6,2.2c0,0.8-0.2,1.6-0.6,2.2
		c-0.4,0.6-0.9,1.2-1.5,1.5c-0.6,0.4-1.4,0.5-2.1,0.5C155.3,44.3,154.6,44.1,154,43.8z M157.7,43c0.5-0.3,0.8-0.7,1.1-1.2
		c0.3-0.5,0.4-1.1,0.4-1.8c0-0.7-0.1-1.3-0.4-1.8s-0.6-0.9-1.1-1.2c-0.5-0.3-1-0.4-1.6-0.4c-0.6,0-1.1,0.1-1.6,0.4
		c-0.5,0.3-0.8,0.7-1.1,1.2c-0.3,0.5-0.4,1.1-0.4,1.8c0,0.7,0.1,1.2,0.4,1.8c0.3,0.5,0.6,0.9,1.1,1.2c0.5,0.3,1,0.4,1.6,0.4
		S157.2,43.2,157.7,43z"/>
	<path class="st0" d="M166.1,44.2l-2-3.4h-1.3v3.4h-1.1v-8.4h2.7c0.6,0,1.2,0.1,1.6,0.3s0.8,0.5,1,0.9c0.2,0.4,0.3,0.8,0.3,1.3
		c0,0.6-0.2,1.1-0.5,1.5s-0.8,0.7-1.5,0.9l2.1,3.5H166.1z M162.8,39.9h1.6c0.6,0,1-0.1,1.3-0.4c0.3-0.3,0.4-0.7,0.4-1.2
		c0-0.5-0.1-0.9-0.4-1.2c-0.3-0.3-0.7-0.4-1.3-0.4h-1.6V39.9z"/>
	<path class="st0" d="M177.5,35.9v8.3h-1.1V38l-2.8,6.2h-0.8l-2.8-6.2v6.2H169v-8.3h1.2l3.1,6.9l3.1-6.9H177.5z"/>
</g>
<g>
	<path class="st0" d="M109.1,49.3v8.4H108v-8.4H109.1z"/>
	<path class="st0" d="M117.6,57.7h-1.1l-4.4-6.7v6.7H111v-8.4h1.1l4.4,6.6v-6.6h1.1V57.7z"/>
	<path class="st0" d="M126,57.7h-1.1l-4.4-6.7v6.7h-1.1v-8.4h1.1l4.4,6.6v-6.6h1.1V57.7z"/>
	<path class="st0" d="M129.5,57.2c-0.6-0.4-1.1-0.9-1.5-1.5c-0.4-0.7-0.6-1.4-0.6-2.2c0-0.8,0.2-1.5,0.6-2.2
		c0.4-0.7,0.9-1.2,1.5-1.5s1.3-0.5,2.1-0.5c0.8,0,1.5,0.2,2.1,0.5c0.6,0.4,1.1,0.9,1.5,1.5c0.4,0.6,0.6,1.4,0.6,2.2
		c0,0.8-0.2,1.6-0.6,2.2c-0.4,0.6-0.9,1.2-1.5,1.5c-0.6,0.4-1.4,0.5-2.1,0.5C130.9,57.8,130.2,57.6,129.5,57.2z M133.2,56.4
		c0.5-0.3,0.8-0.7,1.1-1.2c0.3-0.5,0.4-1.1,0.4-1.8c0-0.7-0.1-1.3-0.4-1.8s-0.6-0.9-1.1-1.2c-0.5-0.3-1-0.4-1.6-0.4
		c-0.6,0-1.1,0.1-1.6,0.4c-0.5,0.3-0.8,0.7-1.1,1.2c-0.3,0.5-0.4,1.1-0.4,1.8c0,0.7,0.1,1.2,0.4,1.8c0.3,0.5,0.6,0.9,1.1,1.2
		c0.5,0.3,1,0.4,1.6,0.4S132.8,56.7,133.2,56.4z"/>
	<path class="st0" d="M144.2,49.3l-3.2,8.4h-1.3l-3.2-8.4h1.2l2.6,7.2l2.6-7.2H144.2z"/>
	<path class="st0" d="M150.4,55.8h-3.6l-0.7,1.9h-1.2l3-8.3h1.3l3,8.3H151L150.4,55.8z M150,54.9l-1.5-4.2l-1.5,4.2H150z"/>
	<path class="st0" d="M158.6,49.3v0.9h-2.3v7.5h-1.1v-7.5H153v-0.9H158.6z"/>
	<path class="st0" d="M161.1,49.3v8.4H160v-8.4H161.1z"/>
	<path class="st0" d="M169.9,49.3l-3.2,8.4h-1.3l-3.2-8.4h1.2l2.6,7.2l2.6-7.2H169.9z"/>
	<path class="st0" d="M172.1,50.2V53h3v0.9h-3v2.9h3.4v0.9H171v-8.4h4.5v0.9H172.1z"/>
</g>
</svg>
